<svg width="137" height="137" viewBox="0 0 137 137" fill="none" xmlns="http://www.w3.org/2000/svg">
<rect width="137" height="137" rx="68.5" fill="white"/>
<g clip-path="url(#clip0_562_2)">
<path d="M47.0383 92.6998C46.8784 94.8001 47.2212 96.9083 48.0383 98.8498C48.2257 99.2828 48.4464 99.7007 48.6983 100.1C56.4586 92.5865 63.7144 84.5691 70.4182 76.0998L72.3382 69.9998H72.4282L72.6682 69.2598C63.7982 76.9998 55.6783 85.2098 47.0383 92.6998Z" fill="#1A8917"/>
<path d="M70.4583 76.1299C63.7544 84.5992 56.4986 92.6166 48.7383 100.13C49.6967 101.619 50.9915 102.863 52.5183 103.76C52.9969 104.05 53.4986 104.301 54.0183 104.51C58.6083 98.5099 62.6483 91.8099 67.2683 86.5099L70.4583 76.1299Z" fill="#1A8917"/>
<path d="M99.8986 61C99.2545 58.5728 97.9817 56.3583 96.2086 54.58C95.2469 53.692 94.1168 53.0061 92.8852 52.563C91.6536 52.1198 90.3456 51.9284 89.0386 52C86.268 51.9406 83.5379 52.6725 81.1686 54.11C78.9353 55.4945 77.0063 57.318 75.4986 59.47L78.4986 49.89C79.0498 47.9699 79.3852 45.9944 79.4986 44C79.6585 41.8997 79.3157 39.7915 78.4986 37.85C77.5597 35.8041 75.9988 34.1067 74.0386 33C71.8986 31.6667 68.8086 31 64.7686 31H60.3886C60.8687 31.2465 61.2899 31.594 61.623 32.0186C61.9562 32.4433 62.1935 32.935 62.3186 33.46C62.6203 34.6144 62.7417 35.8085 62.6786 37C62.6313 38.1563 62.4705 39.3051 62.1986 40.43C61.9319 41.4833 61.7419 42.1867 61.6286 42.54L48.8086 84.54C58.3578 77.9994 67.2555 70.5551 75.3786 62.31C75.9636 61.2257 76.7878 60.2887 77.7886 59.57C78.115 59.3037 78.5031 59.1238 78.9173 59.0469C79.3315 58.97 79.7584 58.9986 80.1586 59.13C80.5333 59.3657 80.8449 59.6892 81.0662 60.0726C81.2875 60.456 81.4119 60.8876 81.4286 61.33C81.5961 62.909 81.4046 64.5054 80.8686 66L72.4286 92.44C72.011 94.0288 71.2111 95.4913 70.0986 96.7C69.7819 97.0639 69.3897 97.3543 68.9493 97.5512C68.5089 97.7481 68.0309 97.8466 67.5486 97.84C67.1199 97.7653 66.7203 97.5735 66.3938 97.2858C66.0673 96.9982 65.8267 96.6258 65.6986 96.21C65.2525 94.9203 65.2072 93.5259 65.5686 92.21L66.4486 89.13L66.7086 88.6H66.6186L67.2686 86.49C62.6386 91.81 58.5986 98.49 54.0186 104.49C56.5067 105.391 59.1439 105.808 61.7886 105.72H66.1786C65.5096 105.4 64.9572 104.879 64.5986 104.23C64.2399 103.56 64.0029 102.832 63.8986 102.08C63.7951 101.263 63.7951 100.437 63.8986 99.62C63.9853 98.7733 64.0886 97.9667 64.2086 97.2C64.3931 98.3654 64.7293 99.5018 65.2086 100.58C65.6428 101.632 66.2626 102.597 67.0386 103.43C67.8882 104.299 68.91 104.98 70.0386 105.43C71.3712 105.954 72.7869 106.235 74.2186 106.26C77.7439 106.427 81.2353 105.506 84.2186 103.62C87.1851 101.738 89.7786 99.324 91.8686 96.5C93.98 93.6035 95.7171 90.4519 97.0386 87.12C98.3256 84.0994 99.3299 80.966 100.039 77.76C100.524 74.988 100.802 72.1835 100.869 69.37C100.975 66.5468 100.647 63.7241 99.8986 61Z" fill="#242424"/>
<path d="M48.7981 84.4796L48.0381 86.8096C47.4873 88.7297 47.1519 90.7052 47.0381 92.6996C55.6781 85.2096 63.7981 76.9996 72.6681 69.2896L72.7781 68.9296L73.3981 66.9996C73.6314 66.2662 73.8948 65.5196 74.1881 64.7596C74.4258 64.0939 74.7098 63.4456 75.0381 62.8196C75.1381 62.6296 75.2481 62.4796 75.3481 62.3096C67.2285 70.5328 58.3377 77.9569 48.7981 84.4796Z" fill="#1A8917"/>
</g>
<defs>
<clipPath id="clip0_562_2">
<rect width="53.8877" height="75.2794" fill="white" transform="translate(47 31)"/>
</clipPath>
</defs>
</svg>
