<svg width="197" height="43" viewBox="0 0 197 43" fill="none" xmlns="http://www.w3.org/2000/svg">
<path d="M11 31.98H19.92C26.57 31.98 28.43 29.38 28.43 25.94C28.43 22.79 25.49 21.02 21.96 20.87V20.71C24.66 20.4 26.51 18.76 26.51 15.85C26.51 12.82 25.12 10.31 19.08 10.31H11V31.98ZM15.18 19.32V13.59H18.62C21.37 13.59 22.55 14.43 22.55 16.32C22.55 18.55 20.82 19.32 18.46 19.32H15.18ZM15.18 28.67V22.48H18.87C21.93 22.48 24.01 23.56 24.01 25.73C24.01 27.89 22.43 28.67 18.93 28.67H15.18ZM35.21 25.51V10.31H31V25.51H35.21ZM31 31.98H46.76V27.89H31V31.98ZM58.89 10V13.96C62.98 13.96 66.07 16.32 66.07 21.15C66.07 25.97 62.98 28.36 58.89 28.36C54.93 28.36 51.86 25.97 51.86 21.15H47.65C47.65 28.3 52.64 32.29 58.89 32.29C65.3 32.29 70.25 28.61 70.25 21.15C70.25 14.03 65.3 10 58.89 10ZM76.69 21.15C76.69 16.94 79.6 13.69 83.93 13.69C87.25 13.69 89.38 15.23 90.19 17.71H94.61C93.56 12.29 89.81 10 83.9 10C77 10 72.64 14.34 72.64 21.15H76.69ZM83.59 31.98L90.77 26.81V31.98H94.67C94.67 31.83 94.67 20.59 94.67 20.43H83.16V23.47H89.41L77.59 31.98H83.59ZM117.98 31.98H122.35L130.27 10.31H125.54L120.55 26.35H120.34L115.29 10.31H111.08L117.98 31.98ZM104.12 31.98H108.51L112.04 21.15L110.12 15.54L106.75 26.35H106.53L101.14 10.31H96.41L104.12 31.98ZM140.43 10.31H135.13L127.36 31.98H131.88L137.64 14.8H137.95L144.11 31.98H148.94L140.43 10.31ZM151.2 31.98H155.38V24.33H160.24L164.29 31.98H169L163.95 23.62C166.58 22.32 167.76 19.47 167.76 17.15C167.76 12.79 165.03 10.31 160.14 10.31H151.2V13.96H159.68C162.46 13.96 163.83 15.11 163.83 17.25C163.83 19.54 162.22 20.87 159.71 20.87H151.2V31.98ZM187.04 14.37V10.31H171.01V14.37H187.04ZM187.04 23.07V19.23H171.01V23.07H187.04ZM171.01 31.98H187.04V27.89H171.01V31.98Z" fill="#242424"/>
</svg>
